<svg width="34" height="34" viewBox="0 0 34 34" fill="none" xmlns="http://www.w3.org/2000/svg">
<path d="M5.55703 28.5666C4.11953 27.1291 2.99349 25.468 2.17891 23.5833C1.36432 21.6986 0.957031 19.75 0.957031 17.7375C0.957031 15.725 1.34036 13.7364 2.10703 11.7718C2.8737 9.80724 4.11953 7.96245 5.84453 6.23745C6.96258 5.11939 8.34418 4.16106 9.98932 3.36245C11.6345 2.56384 13.5831 1.93293 15.8351 1.46974C18.0872 1.00654 20.6588 0.727029 23.5497 0.631196C26.4407 0.535362 29.6751 0.647168 33.2528 0.966612C33.5084 4.35272 33.5883 7.46731 33.4924 10.3104C33.3966 13.1534 33.1331 15.717 32.7018 18.001C32.2706 20.285 31.6636 22.2816 30.881 23.9906C30.0983 25.6996 29.132 27.1291 27.982 28.2791C26.289 29.9722 24.4921 31.21 22.5914 31.9927C20.6907 32.7753 18.7501 33.1666 16.7695 33.1666C14.6931 33.1666 12.6647 32.7593 10.6841 31.9447C8.70356 31.1302 6.99453 30.0041 5.55703 28.5666ZM10.9237 27.8C11.8501 28.343 12.8004 28.7343 13.7747 28.9739C14.749 29.2135 15.7473 29.3333 16.7695 29.3333C18.239 29.3333 19.6924 29.0378 21.1299 28.4468C22.5674 27.8559 23.941 26.9055 25.2508 25.5958C25.8258 25.0208 26.4088 24.2142 26.9997 23.176C27.5907 22.1378 28.1018 20.7802 28.5331 19.1031C28.9643 17.426 29.2917 15.3975 29.5154 13.0177C29.739 10.6378 29.7709 7.80273 29.6112 4.51245C28.0459 4.44856 26.281 4.4246 24.3164 4.44057C22.3518 4.45654 20.3952 4.60828 18.4466 4.89578C16.498 5.18328 14.6452 5.64648 12.8883 6.28536C11.1313 6.92425 9.69383 7.80273 8.57578 8.92078C7.13828 10.3583 6.148 11.7798 5.60495 13.1854C5.06189 14.5909 4.79036 15.9486 4.79036 17.2583C4.79036 19.143 5.14974 20.7961 5.86849 22.2177C6.58724 23.6392 7.21814 24.6375 7.7612 25.2125C9.10286 22.6569 10.8758 20.2052 13.0799 17.8572C15.2841 15.5093 17.8556 13.5847 20.7945 12.0833C18.4945 14.0958 16.49 16.3718 14.781 18.9114C13.072 21.451 11.7862 24.4138 10.9237 27.8Z" fill="#69BE42"/>
</svg>
