<svg width="80" height="80" viewBox="0 0 80 80" fill="none" xmlns="http://www.w3.org/2000/svg">
<path d="M3.83301 66.6667L15.9163 42.5833C16.3536 41.75 16.9769 41.0833 17.7863 40.5833C18.5952 40.0833 19.4697 39.8333 20.4097 39.8333C21.3902 39.8333 22.2894 40.1111 23.1072 40.6667C23.9244 41.2222 24.5552 41.9722 24.9997 42.9167L28.083 50.25C28.4163 50.9722 29.0083 51.3036 29.8588 51.2442C30.71 51.1847 31.2569 50.7978 31.4997 50.0833L38.9163 25.25C39.6941 22.75 41.1386 20.7222 43.2497 19.1667C45.3608 17.6111 47.735 16.8333 50.3722 16.8333C52.9572 16.8333 55.2913 17.5833 57.3747 19.0833C59.458 20.5833 60.9163 22.5833 61.7497 25.0833L76.2497 66.6667H70.9163L56.9997 26.6667C56.4997 25.2222 55.6386 24.0556 54.4163 23.1667C53.1941 22.2778 51.833 21.8333 50.333 21.8333C48.833 21.8333 47.4719 22.2778 46.2497 23.1667C45.0275 24.0556 44.1941 25.2222 43.7497 26.6667L36.333 51.5C35.8886 52.9445 35.0552 54.1111 33.833 55C32.6108 55.8889 31.2394 56.3333 29.7188 56.3333C28.3505 56.3333 27.0969 55.9583 25.958 55.2083C24.8191 54.4583 23.9997 53.4445 23.4997 52.1667L20.2497 44.5L9.33301 66.6667H3.83301ZM19.3747 32.1667C16.7913 32.1667 14.583 31.25 12.7497 29.4167C10.9163 27.5833 9.99967 25.3611 9.99967 22.75C9.99967 20.1945 10.9152 17.9861 12.7463 16.125C14.5775 14.2639 16.8008 13.3333 19.4163 13.3333C21.9719 13.3333 24.1802 14.2639 26.0413 16.125C27.9025 17.9861 28.833 20.1945 28.833 22.75C28.833 25.3611 27.9025 27.5833 26.0413 29.4167C24.1802 31.25 21.958 32.1667 19.3747 32.1667ZM19.4163 27.1667C20.6386 27.1667 21.6802 26.7464 22.5413 25.9058C23.4025 25.0653 23.833 24.0236 23.833 22.7808C23.833 21.5381 23.4025 20.4861 22.5413 19.625C21.6802 18.7639 20.6386 18.3333 19.4163 18.3333C18.1941 18.3333 17.1525 18.7592 16.2913 19.6108C15.4302 20.4631 14.9997 21.5186 14.9997 22.7775C14.9997 24.037 15.4302 25.0833 16.2913 25.9167C17.1525 26.75 18.1941 27.1667 19.4163 27.1667Z" fill="#8BBE6A"/>
</svg>
